<?xml version="1.0" standalone="no"?><!DOCTYPE svg PUBLIC "-//W3C//DTD SVG 1.1//EN" "http://www.w3.org/Graphics/SVG/1.1/DTD/svg11.dtd"><svg t="1763787542286" class="icon" viewBox="0 0 1024 1024" version="1.1" xmlns="http://www.w3.org/2000/svg" p-id="8278" id="mx_n_1763787542287" xmlns:xlink="http://www.w3.org/1999/xlink" width="200" height="200"><path d="M957.563892 377.694131c-14.762215-52.598962-76.745918-87.784322-165.16776-102.527095 13.189394 15.618723 25.125237 32.336476 35.605939 50.02944 49.249681 14.144138 82.582857 36.120662 90.273003 63.514569 4.462638 15.860223 0.63752 34.469046-11.356652 55.248302-12.948917 22.454408-36.260855 47.559179-68.736501 72.822562 0.021489-1.613754 0.239454-3.168156 0.239454-4.78191 0-180.290179-146.161894-326.430584-326.430584-326.430584S185.561229 331.709821 185.561229 512c0 55.208393 13.82589 107.151415 38.014802 152.733567-64.553225-13.148461-108.823498-38.033221-117.869524-70.269413-4.461615-15.879666-0.636496-34.428114 11.357675-55.248302 6.534833-11.296277 16.535605-23.411199 28.132734-35.744086 0.477884-21.197788 2.588965-41.999556 6.515391-62.180178-66.068741 54.012148-99.758028 112.667036-85.292572 164.190503 15.996322 56.941873 87.184665 93.54349 187.442066 105.816001 59.709917 77.203336 152.97302 127.133515 258.130012 127.133515 160.067602 0 292.958238-115.300003 320.81161-267.336698C924.631852 509.687328 974.700177 438.682157 957.563892 377.694131zM511.991814 797.626249c-78.020958 0-148.671041-31.360242-200.213951-82.08553 6.952342 0.218988 13.925151 0.3776 21.099551 0.3776 70.968331 0 150.940734-10.020214 233.387491-31.099299 81.963757-20.959358 155.781996-50.287313 217.046315-83.898829C745.915517 715.082278 638.665865 797.626249 511.991814 797.626249zM795.306414 546.646078c-59.97086 37.655621-140.42217 73.420173-239.124146 98.66309-76.366272 19.525706-153.571654 29.826306-223.304855 29.826306-20.163225 0-39.051411 1.7519-57.301054 0.079818-31.041994-45.705971-49.211818-103.802134-49.211818-163.215292 0-157.736511 127.870296-285.626249 285.626249-285.626249s285.626249 127.890762 285.626249 285.626249C797.618063 523.754718 796.701181 535.269983 795.306414 546.646078zM369.132128 593.607646c-45.008077 0-81.607646-36.609803-81.607646-81.607646s36.599569-81.607646 81.607646-81.607646 81.607646 36.609803 81.607646 81.607646S414.140205 593.607646 369.132128 593.607646zM369.132128 471.195665c-22.494317 0-40.803311 18.299785-40.803311 40.803311s18.310018 40.803311 40.803311 40.803311 40.803311-18.299785 40.803311-40.803311S391.625422 471.195665 369.132128 471.195665zM542.547737 369.186364c-28.132734 0-51.004651-22.88215-51.004651-51.004651 0-28.122501 22.87294-51.004651 51.004651-51.004651s51.004651 22.88215 51.004651 51.004651C593.552387 346.304214 570.680471 369.186364 542.547737 369.186364zM542.547737 307.981397c-5.618974 0-10.201339 4.572132-10.201339 10.201339 0 5.628184 4.582365 10.201339 10.201339 10.201339s10.201339-4.572132 10.201339-10.201339C552.749076 312.553529 548.166711 307.981397 542.547737 307.981397zM654.758378 552.803311c-22.494317 0-40.803311-18.299785-40.803311-40.803311s18.310018-40.803311 40.803311-40.803311 40.803311 18.299785 40.803311 40.803311S677.252695 552.803311 654.758378 552.803311z" fill="#16bd21" p-id="8279"></path></svg>